<svg width="88" height="65" viewBox="0 0 88 65" fill="none" xmlns="http://www.w3.org/2000/svg">
<path d="M43.8533 30.2148V64.0598C43.8533 64.0598 63.0667 54.2373 76.56 51.3546C76.56 51.3546 77.1467 30.4284 85.5067 19.9653L43.8533 30.2148Z" fill="#076170"/>
<path d="M55.88 58.935C55.88 58.935 56.6133 28.9336 58.08 27.4389C59.5467 25.8374 72.16 24.2359 72.16 24.2359C72.16 24.2359 67.0267 52.3155 68.2 54.1305C68.3467 54.0237 63.0667 55.6252 55.88 58.935Z" fill="#B3690E"/>
<path d="M43.8533 64.0598C43.8533 64.0598 30.36 55.732 9.38668 51.3546C9.38668 51.3546 11 34.1652 3.37335 21.0329L43.8533 30.2148V64.0598Z" fill="#3BAACF"/>
<path d="M17.8933 54.1305C17.8933 54.1305 30.2133 57.7606 31.0933 58.935C31.9733 60.1094 31.9733 28.7201 31.9733 28.7201C31.9733 28.7201 15.1067 25.3036 13.64 25.3036C13.64 25.3036 18.7733 38.0088 17.8933 54.1305Z" fill="#E9C243"/>
<path opacity="0.3" d="M43.8534 30.2148V35.8735L81.5467 26.478C82.5733 24.1292 83.8933 21.8871 85.36 19.9653L43.8534 30.2148ZM6.01335 26.9051C5.28002 24.8765 4.40002 22.9547 3.22668 21.0329L43.7067 30.2148V35.8735L6.01335 26.9051Z" fill="black"/>
<path d="M0 18.0436L41.8 24.7699L88 16.6556L42.68 14.8406L0 18.0436Z" fill="#4FC7E8"/>
<path d="M0 18.0435L3.37333 24.7698L41.8 32.6705V24.7698L0 18.0435Z" fill="#3BAACF"/>
<path d="M41.8 32.6705C41.8 32.6705 76.7067 23.275 85.36 22.848C85.36 22.848 85.9467 19.1111 88 16.7623L41.8 24.7697V32.6705Z" fill="#076170"/>
<path d="M12.4667 20.072L20.9733 25.9442L30.36 22.8479L44 19.8585L61.0133 21.3532L69.96 22.6344L77.1467 18.5773L12.4667 20.072Z" fill="#F0AE11"/>
<path d="M30.36 22.848L44 19.8585L61.0133 21.3532L77.1467 18.5773L43.12 16.2285L12.4667 20.072L30.36 22.848Z" fill="#F0AE11"/>
<path d="M12.4667 20.0721V27.5458L29.6267 30.9623L30.36 22.8481L12.4667 20.0721Z" fill="#F8D048"/>
<path d="M61.0133 21.3533L61.3067 28.5066L75.9733 25.3036L77.1467 18.5773L61.0133 21.3533Z" fill="#C47116"/>
<path d="M51.7733 16.3353C51.7733 16.3353 51.7733 8.86161 61.7467 2.34886C61.7467 2.34886 55.7333 3.95036 52.8 3.52329C49.28 3.09623 48.1067 0 48.1067 0C48.1067 0 39.6 13.4526 42.0933 15.1608C44.5867 16.9759 51.7733 16.3353 51.7733 16.3353Z" fill="#EA9F07"/>
<path d="M38.72 20.7127C38.72 20.7127 33 12.1714 20.8267 7.68716C20.8267 7.68716 30.36 7.04657 32.56 6.19244C35.3467 5.23154 36.96 2.56238 36.96 2.56238C36.96 2.56238 47.52 16.0149 46.64 18.0435C45.76 20.0721 38.72 20.7127 38.72 20.7127Z" fill="#F8D048"/>
<path d="M44.88 19.7518C44.88 19.7518 35.9333 22.3142 24.4933 22.3142C0.440008 22.2074 -2.93333 9.60897 20.8267 10.7834C40.3333 11.8511 44.88 19.7518 44.88 19.7518Z" fill="#EA9F07"/>
<path d="M43.2667 19.645C43.2667 19.645 53.8267 20.2856 63.6533 18.4706C84.1867 14.627 76.56 3.30977 57.2 8.11426C41.36 12.0646 43.2667 19.645 43.2667 19.645Z" fill="#F0AE11"/>
<path d="M44.88 19.7517C44.88 19.7517 39.3067 21.3532 32.12 21.3532C17.16 21.3532 14.96 13.4525 29.7734 14.1999C41.9467 14.8405 44.88 19.7517 44.88 19.7517Z" fill="#824000"/>
<path d="M44.88 19.7518C44.88 19.7518 52.2133 20.1788 59.1067 18.8976C73.48 16.2285 68.0533 8.32775 54.7067 11.6375C43.56 14.4134 44.88 19.7518 44.88 19.7518Z" fill="#824000"/>
</svg>
